<svg width="52" height="49" viewBox="0 0 52 49" fill="none" xmlns="http://www.w3.org/2000/svg">
<g clip-path="url(#clip0_215_7049)">
<path d="M7.61288 41.8043C7.88288 42.0611 8.16038 42.3084 8.44288 42.5534L0.942878 17.9438C-0.276104 22.122 -0.301195 26.5295 0.870147 30.7197C2.04149 34.9099 4.36763 38.734 7.61288 41.8043Z" fill="#9A9A9A"/>
<path d="M44.3629 7.16764C41.0662 4.06813 36.9477 1.85811 32.4364 0.767759C27.9252 -0.322594 23.1861 -0.253392 18.7129 0.968151L45.3804 8.18048C45.0529 7.83658 44.7129 7.4974 44.3629 7.16764Z" fill="#9A9A9A"/>
<path d="M24.8623 19.2817L39.2223 32.8136L46.4373 39.609C49.1017 36.4349 50.8833 32.6845 51.6206 28.6978C52.358 24.711 52.0277 20.6139 50.6598 16.7778L40.2773 17.7859L24.8623 19.2817Z" fill="#9A9A9A"/>
<path d="M41.8627 43.8724L34.6127 37.0416L20.3027 23.5615L17.6777 47.6952C21.7291 48.9988 26.0611 49.3319 30.2832 48.6645C34.5053 47.9971 38.4847 46.3503 41.8627 43.8724Z" fill="#9A9A9A"/>
<path d="M24.8604 19.2818L40.2753 17.7861L24.8604 19.2818Z" fill="#9A9A9A"/>
<path d="M41.8725 43.8724L34.625 37.0464L41.8725 43.8724Z" fill="#9A9A9A"/>
<path d="M5.14453 9.83883L12.6595 34.5002L14.457 18.0546C14.4979 17.6672 14.5138 17.2778 14.5045 16.8886V16.8345C14.5047 16.4296 14.591 16.0289 14.7583 15.6561C14.9256 15.2832 15.1706 14.9457 15.4787 14.6636C15.7868 14.3814 16.1518 14.1603 16.5521 14.0133C16.9525 13.8663 17.38 13.7964 17.8095 13.8077C18.1305 13.8207 18.4521 13.8136 18.772 13.7865L36.467 12.0694L10.262 4.98193C8.32308 6.36698 6.6004 8.00194 5.14453 9.83883Z" fill="#A1A1A1"/>
</g>
<defs>
<clipPath id="clip0_215_7049">
<rect width="52" height="49" fill="white"/>
</clipPath>
</defs>
</svg>
