<svg width="74" height="49" viewBox="0 0 74 49" fill="none" xmlns="http://www.w3.org/2000/svg">
<g clip-path="url(#clip0_215_7039)">
<path d="M20.6127 14.1567C20.6083 12.5974 20.7188 11.0398 20.9433 9.49463C19.3893 12.1695 18.6228 15.1804 18.7216 18.2211C18.7224 18.273 18.7013 18.3231 18.6627 18.3605C18.6242 18.398 18.5714 18.4198 18.5157 18.4212C15.2454 18.355 12.0398 19.276 9.37665 21.0469C8.09872 21.9249 6.98039 22.9886 6.06443 24.1973C5.15309 25.3811 4.46637 26.7019 4.03418 28.1022L3.86885 28.6187L3.75574 29.1595C3.6666 29.5077 3.60169 29.8609 3.56142 30.2169C3.52951 30.5738 3.48311 30.9254 3.4541 31.2796V32.3451C3.52323 33.7479 3.8165 35.1333 4.32421 36.4554C5.37065 39.0379 7.26206 41.2479 9.7305 42.7724C10.9381 43.5077 12.2556 44.0726 13.6402 44.449L14.6872 44.6708C15.0353 44.7465 15.3949 44.7627 15.7488 44.8168C15.9257 44.8357 16.0997 44.8736 16.2795 44.8763L16.8161 44.8925C17.1844 44.8925 17.5006 44.9277 17.9414 44.9142C21.2556 44.8763 24.5717 44.8664 27.8897 44.8844C31.6524 44.906 35.4133 44.9673 39.1721 45.0683C38.186 44.513 37.2308 43.9217 36.3066 43.2943C33.016 41.034 30.1368 38.2948 27.7795 35.1818C23.1068 29.0442 20.5999 21.7022 20.6069 14.1756L20.6127 14.1567Z" fill="#A1A1A1"/>
<path d="M66.3 23.8806C69.2282 25.0276 71.6957 27.0037 73.3537 29.5297C72.8703 27.5207 71.9237 25.634 70.5797 24.0004C69.2356 22.3668 67.5263 21.0256 65.5704 20.0698C63.6145 19.1141 61.459 18.5668 59.2534 18.4658C57.0478 18.3648 54.8451 18.7127 52.7983 19.4852C50.7514 20.2577 48.9094 21.4364 47.4002 22.9394C45.891 24.4424 44.7507 26.2336 44.0586 28.1887C43.3665 30.1439 43.1392 32.216 43.3923 34.2613C43.6455 36.3066 44.3731 38.276 45.5246 40.0327C44.8212 37.1495 45.1104 34.1329 46.3512 31.4118C47.9291 27.9495 50.9155 25.2122 54.6554 23.8003C58.3952 22.3884 62.583 22.4173 66.3 23.8806Z" fill="#9A9A9A"/>
<path d="M73.951 32.5777C73.7641 34.7699 73.0525 36.8952 71.8685 38.7973C70.7091 40.6371 69.1236 42.2123 67.2279 43.408C65.366 44.5568 63.2487 45.2965 61.0356 45.5713C60.4923 45.6392 59.9451 45.6762 59.3969 45.6822C59.1214 45.6822 58.8487 45.6822 58.5761 45.6822L57.6857 45.6524L54.1066 45.5307C52.0996 45.4658 50.0925 45.4073 48.0855 45.355C44.3843 44.6092 40.8343 43.3185 37.5687 41.5312C34.1958 39.6914 31.1773 37.3377 28.6385 34.5679C23.4545 28.8718 20.6101 21.6434 20.6132 14.1729C20.6062 21.6996 23.1131 29.0415 27.7858 35.1791C30.1431 38.2922 33.0223 41.0314 36.3129 43.2917C37.2352 43.9226 38.1904 44.514 39.1784 45.0656C35.4176 44.9683 31.6568 44.907 27.896 44.8817C25.0768 44.8628 22.2548 44.8817 19.4327 44.9007H18.2958H17.8491C17.7012 44.9007 17.5417 44.9007 17.4228 44.9007C17.1675 44.9007 16.9094 44.9007 16.6542 44.8709C16.3989 44.8412 16.1437 44.8358 15.8914 44.7979C15.639 44.76 15.3838 44.733 15.1344 44.687C14.1296 44.5087 13.1518 44.2172 12.2224 43.819C9.38101 42.6486 7.06481 40.593 5.67095 38.0047C4.2771 35.4164 3.89241 32.4566 4.58285 29.6328C4.80724 28.6918 5.15195 27.7794 5.60957 26.9151C6.06086 26.0398 6.62163 25.2175 7.28019 24.4651C9.28884 22.1556 12.098 20.5712 15.2243 19.9842C15.7464 19.8829 16.2741 19.8089 16.805 19.7625L17.6113 19.7165L18.5046 19.6895L20.1288 19.6435L20.0824 18.2211C20.0282 16.6158 20.2136 15.0113 20.6335 13.4536C20.6335 13.6889 20.6335 13.9241 20.6335 14.1567C20.6335 13.9106 20.6335 13.6618 20.6538 13.4157C20.8077 12.8416 20.9946 12.2756 21.2136 11.7202C22.0479 9.60671 23.3069 7.66098 24.9231 5.98732C26.5832 4.28931 28.5718 2.89847 30.7848 1.88776C33.0595 0.864255 35.518 0.242614 38.0357 0.0543153C35.4376 -0.136686 32.8254 0.177316 30.3642 0.976444C27.846 1.78791 25.5317 3.06967 23.5629 4.74339C21.5489 6.43833 19.9257 8.49737 18.7917 10.7954C17.8738 12.6703 17.2862 14.6709 17.0515 16.7203H16.6339C15.9738 16.7374 15.3153 16.7897 14.6616 16.8771C13.3451 17.0545 12.0553 17.3749 10.8186 17.8317C8.31996 18.7576 6.09242 20.2228 4.31891 22.107C2.51448 23.998 1.22164 26.2641 0.548431 28.7161C0.212493 29.9417 0.0285661 31.1993 0.000261416 32.4641C-0.0544383 35.6644 0.905267 38.8085 2.75908 41.5024C4.6129 44.1964 7.27834 46.3201 10.4213 47.6076C11.6711 48.1232 12.9827 48.4973 14.3281 48.7217C14.6645 48.7785 15.001 48.8299 15.3403 48.865C15.6797 48.9002 16.0161 48.9326 16.3554 48.9543C16.6948 48.9759 17.037 48.9786 17.3764 48.9894H18.2929H19.4327C22.2519 49.0137 25.0739 49.0246 27.8931 49.0056C34.5292 48.9696 41.1633 48.8163 47.7954 48.5459H47.9463H48.042C50.0587 48.4918 52.0754 48.4332 54.0921 48.3701L57.6712 48.2485L58.5703 48.216C58.8951 48.1944 59.2171 48.189 59.539 48.1538C60.1817 48.0937 60.8199 47.998 61.4504 47.8672C63.9588 47.3605 66.3008 46.3016 68.2807 44.779C72.231 41.78 74.3599 37.0342 73.951 32.5777Z" fill="#9A9A9A"/>
</g>
<defs>
<clipPath id="clip0_215_7039">
<rect width="74" height="49" fill="white"/>
</clipPath>
</defs>
</svg>
