<svg width="16" height="16" viewBox="0 0 16 16" fill="none" xmlns="http://www.w3.org/2000/svg">
<path d="M15.9959 15.9997V15.9991H15.9999V10.1311C15.9999 7.26041 15.3819 5.04907 12.0258 5.04907C10.4125 5.04907 9.32985 5.93441 8.88785 6.77374H8.84118V5.31707H5.65918V15.9991H8.97251V10.7097C8.97251 9.31707 9.23651 7.97041 10.9612 7.97041C12.6605 7.97041 12.6858 9.55974 12.6858 10.7991V15.9997H15.9959Z" fill="#02261D" fill-opacity="0.18"/>
<path d="M0.263672 5.31787H3.58101V15.9999H0.263672V5.31787Z" fill="#02261D" fill-opacity="0.18"/>
<path d="M1.92133 0C0.860667 0 0 0.860667 0 1.92133C0 2.982 0.860667 3.86067 1.92133 3.86067C2.982 3.86067 3.84267 2.982 3.84267 1.92133C3.842 0.860667 2.98133 0 1.92133 0V0Z" fill="#02261D" fill-opacity="0.18"/>
</svg>
