<svg width="83" height="53" viewBox="0 0 83 53" fill="none" xmlns="http://www.w3.org/2000/svg">
<g clip-path="url(#clip0_215_7023)">
<path d="M82.8669 7.15412C81.3276 3.03306 73.9569 3.76772 70.4295 4.10825V4.84292C70.4311 4.87022 70.4311 4.89759 70.4295 4.9249C71.1881 4.94697 71.9467 4.9785 72.7021 5.04472C74.4847 5.18345 77.9014 5.44831 79.7441 6.52035C80.055 6.70384 80.2897 6.99238 80.4057 7.33367C80.5217 7.67496 80.5112 8.0464 80.3762 8.38066V8.39644C79.4849 10.3356 77.4811 12.1108 75.7332 13.517C71.0996 17.1746 65.935 20.1637 60.7451 22.9762C54.8662 26.1104 48.8535 28.9734 42.707 31.5652L43.5826 33.8638V33.8953V33.9269L44.398 36.3768C54.0761 32.221 63.4791 27.3622 72.0162 21.1948C75.5593 18.5115 84.1659 12.1265 82.8669 7.15412Z" fill="#9A9A9A"/>
<path d="M26.5282 37.7141C20.5007 39.628 9.30239 43.2257 3.27177 41.8415C2.45631 41.5514 3.17695 40.1483 3.4709 39.4641C3.53411 39.319 3.59733 39.174 3.66686 39.0289C4.7257 36.8943 6.37244 34.9646 7.95279 33.1358C9.58687 31.2629 11.36 29.513 13.1205 27.7472L13.1395 26.9937C9.34663 29.5855 -4.15902 38.9312 1.27106 44.0202C6.98561 48.321 23.5034 43.6419 30.084 41.646L28.5669 37.0299C27.8905 37.2569 27.2109 37.485 26.5282 37.7141Z" fill="#9A9A9A"/>
<path d="M54.4997 33.9429C51.4434 35.4627 48.2827 36.9131 45.043 38.2878L49.1013 50.4492L54.4997 33.9429Z" fill="#A2A2A2"/>
<path d="M44.0345 40.3562L42.9187 36.9982L42.0622 34.4316L41.2056 32.1803L28.9516 0H25.6455V22.9575L30.0863 36.4874L31.6161 41.1476L35.5069 53H48.2414L44.0345 40.3562Z" fill="#9A9A9A"/>
<path d="M47.8373 27.0975C50.1793 26.0507 52.5246 24.8904 54.7908 23.7742V22.9291V0L44.1582 28.7466C45.2992 28.2452 46.5035 27.706 47.812 27.1038L47.8373 27.0975Z" fill="#A2A2A2"/>
<path d="M14.0938 52.9999H28.949V44.083C24.935 45.2623 19.7419 46.6496 14.0938 47.3685V52.9999Z" fill="#A2A2A2"/>
<path d="M28.9393 34.7689V22.9291V22.9575V0H14.084V39.117C18.0731 38.2287 22.0109 37.1246 25.8797 35.8094C26.9955 35.4405 28.0006 35.0968 28.9393 34.7689Z" fill="#A2A2A2"/>
<path d="M54.791 33.7916V53.0001H69.4851V25.3887C66.4666 27.3877 63.1289 29.3773 59.3709 31.4174C57.8853 32.2245 56.3587 33.016 54.791 33.7916Z" fill="#9A9A9A"/>
<path d="M58.1161 0H54.791V22.9323V23.7773L54.8574 23.7426C55.9731 23.1845 57.0446 22.6359 58.0876 22.0904C61.9437 20.0788 65.3288 18.1491 68.3441 16.2415L69.4693 15.5131V0H58.1161Z" fill="#9A9A9A"/>
</g>
<defs>
<clipPath id="clip0_215_7023">
<rect width="83" height="53" fill="white"/>
</clipPath>
</defs>
</svg>
