<svg width="43" height="49" viewBox="0 0 43 49" fill="none" xmlns="http://www.w3.org/2000/svg">
<g clip-path="url(#clip0_215_7043)">
<path d="M21.901 48.9206C23.3679 48.2389 28.7401 45.3528 35.1311 38.2569C34.9669 38.2569 34.8054 38.2569 34.6412 38.2569C33.4441 38.2537 32.248 38.1864 31.0588 38.0553C29.2943 37.8633 27.5471 37.5477 25.8313 37.1109C24.3462 36.7343 22.8828 36.2836 21.4473 35.7607V48.9896C21.6022 49.0053 21.7588 48.9815 21.901 48.9206Z" fill="#9A9A9A"/>
<path d="M42.8383 4.78557C42.8318 4.66389 42.798 4.54495 42.7392 4.43674C42.6805 4.32853 42.5981 4.23354 42.4977 4.15816C42.3972 4.08279 42.281 4.02877 42.1569 3.99972C42.0327 3.97068 41.9034 3.96728 41.7778 3.98977C41.4994 4.04282 41.1988 4.09056 40.9121 4.13566C39.1641 4.40891 37.3947 4.53938 35.6234 4.52561C35.1864 4.52561 34.7466 4.50438 34.3096 4.4805C34.7605 4.80678 35.2059 5.13572 35.6457 5.47261C38.009 7.26859 40.2033 9.25767 42.2037 11.4172C42.4681 11.7011 42.727 11.9875 42.9775 12.274C43.0387 8.91576 42.9246 6.17556 42.8383 4.78557Z" fill="#9A9A9A"/>
<path d="M37.75 9.59999C36.7284 8.6583 35.6234 7.72721 34.4654 6.83061C33.3075 5.93401 32.0799 5.09841 30.8468 4.32118C30.6575 4.19916 30.4627 4.07714 30.2678 3.95777C29.3723 3.76377 28.4901 3.51748 27.6263 3.22032C26.6799 2.89285 25.7606 2.49828 24.8761 2.0399C24.2003 1.69426 23.5494 1.30611 22.9277 0.878033C22.7022 0.721526 22.4767 0.557051 22.2624 0.38728C22.0783 0.189787 21.8323 0.0540103 21.561 1.76998e-06C21.5203 -0.00520892 21.4791 -0.00520892 21.4385 1.76998e-06V31.5216C23.2722 32.3339 25.1642 33.0209 27.1002 33.5774C29.8453 34.39 32.699 34.8216 35.5733 34.8586C35.7848 34.8586 35.9991 34.8586 36.2051 34.8586C36.8203 34.8401 37.4187 34.7923 38.0005 34.7207C41.3157 29.6409 42.4987 21.842 42.8578 15.3563C42.1737 14.4055 41.4398 13.4883 40.6588 12.6081C39.7447 11.5579 38.7738 10.5538 37.75 9.59999Z" fill="#A1A1A1"/>
<path d="M16.2672 33.5458L15.7105 33.2805L15.1677 32.9914L14.8421 32.8189C14.5915 32.6863 14.3299 32.5537 14.0821 32.4025L13.0272 31.803L12.0028 31.1716C10.6111 30.2962 9.29169 29.3758 8.05024 28.4394C6.7893 27.4552 5.58403 26.434 4.46226 25.3968C4.20896 25.1554 3.93618 24.8954 3.6272 24.601L2.84225 23.8052C2.64462 23.6062 2.45812 23.402 2.28554 23.2057L2.05172 22.9404L1.67316 22.5239L1.23058 22.0279C1.04687 21.813 0.868722 21.5982 0.693359 21.3833C1.45883 26.9141 3.00926 32.5245 6.02382 36.1082C13.261 44.7373 19.5212 48.1672 21.1161 48.9232C21.2199 48.9709 21.3324 48.9989 21.4474 49.0055V35.7687C21.2637 35.7024 21.0772 35.6387 20.8907 35.5697C19.3116 34.9768 17.7681 34.3011 16.2672 33.5458Z" fill="#A1A1A1"/>
<path d="M20.8625 0.298211C20.509 0.563477 20.1555 0.828747 19.7825 1.08075C19.1214 1.51684 18.4305 1.91029 17.7143 2.25852C16.7875 2.70818 15.8263 3.09039 14.8389 3.40183C13.6348 3.78424 12.3993 4.06995 11.1452 4.25598C9.6464 4.47814 8.13009 4.5749 6.6136 4.54513C4.80851 4.51312 3.00951 4.33565 1.23582 4.01459C1.11193 3.99182 0.984381 3.99423 0.861532 4.02167C0.738683 4.04911 0.623298 4.10095 0.522926 4.17381C0.422554 4.24668 0.339455 4.33892 0.279069 4.4445C0.218684 4.55008 0.182372 4.66664 0.172508 4.78651C0.0834351 6.16855 -0.0501743 8.91141 0.0138469 12.2829C0.144673 12.5774 0.2922 12.8718 0.431377 13.1689C1.64109 15.5245 3.16619 17.7206 4.96853 19.7024C5.89192 20.7413 6.87118 21.7338 7.90238 22.6761C8.9295 23.6125 10.0373 24.5329 11.1925 25.4269C12.3477 26.3208 13.5836 27.1723 14.7833 27.9443C15.983 28.7162 17.2328 29.4351 18.644 30.1752C19.5719 30.6579 20.5053 31.1054 21.4443 31.5174V0.0117188C21.2268 0.0556278 21.0259 0.154602 20.8625 0.298211Z" fill="#9A9A9A"/>
</g>
<defs>
<clipPath id="clip0_215_7043">
<rect width="43" height="49" fill="white"/>
</clipPath>
</defs>
</svg>
