<svg width="57" height="53" viewBox="0 0 57 53" fill="none" xmlns="http://www.w3.org/2000/svg">
<g clip-path="url(#clip0_215_7033)">
<path d="M34.0701 46.0462C34.9883 47.7861 36.3166 49.2775 37.9407 50.3924C39.5648 51.5073 41.4361 52.2123 43.3937 52.4467C45.3514 52.6811 47.3369 52.4379 49.1795 51.7381C51.0221 51.0383 52.6667 49.9027 53.9719 48.4291C55.2772 46.9554 56.204 45.1878 56.6727 43.278C57.1414 41.3683 57.1381 39.3736 56.6629 37.4655C56.1876 35.5573 55.2548 33.7928 53.9446 32.3236C52.6343 30.8543 50.9859 29.7244 49.1409 29.0308C46.3422 27.9463 44.0376 25.8792 42.6608 23.2185C41.2751 20.5973 40.8589 17.5734 41.4851 14.6769C42.1253 11.7594 41.6557 8.70876 40.1675 6.11695C39.0894 4.25372 37.5375 2.70706 35.6683 1.63307C33.7992 0.559086 31.6789 -0.00421643 29.5217 2.37623e-05C27.7906 -0.00247923 26.0796 0.370227 24.5073 1.09233C22.3607 2.07258 20.5465 3.65441 19.2858 5.64497C18.0252 7.63553 17.3726 9.94882 17.4076 12.3028C17.4426 14.6568 18.1637 16.9498 19.483 18.9022C20.8022 20.8546 22.6627 22.3821 24.8375 23.2985C27.6122 24.4189 29.9111 26.4644 31.3423 29.0862L31.7064 29.7785C33.0368 32.374 33.4499 35.3413 32.879 38.2C32.3781 40.8745 32.7978 43.6393 34.0701 46.0462Z" fill="#A1A1A1"/>
<path d="M38.1952 17.7909C38.9673 16.3307 39.4328 14.7289 39.563 13.0833C39.6933 11.4376 39.4856 9.7828 38.9527 8.21991C38.4199 6.65702 37.573 5.21888 36.4639 3.9934C35.3547 2.76792 34.0067 1.78084 32.502 1.09247C31.2802 0.406665 29.9018 0.0463867 28.4998 0.0463867C27.0977 0.0463867 25.7193 0.406665 24.4976 1.09247C22.3509 2.07271 20.5367 3.65454 19.2761 5.6451C18.0154 7.63566 17.3628 9.94896 17.3978 12.3029C17.4328 14.6569 18.1539 16.9499 19.4732 18.9023C20.7925 20.8548 22.6529 22.3823 24.8277 23.2986C26.1633 23.8568 27.4024 24.621 28.4998 25.5632C29.5988 24.6218 30.8389 23.8577 32.1749 23.2986C34.7624 22.2158 36.891 20.2685 38.1952 17.7909Z" fill="#9A9A9A"/>
<path d="M44.9845 28.7263C41.937 28.6217 38.962 29.6666 36.6529 31.6525C34.4073 33.5303 31.5605 34.5423 28.63 34.5048C25.6326 34.5266 22.7303 33.4566 20.4682 31.4956C18.179 29.4618 15.2018 28.3689 12.1366 28.4371C10.5376 28.4547 8.95771 28.7861 7.48715 29.4125C6.01659 30.0389 4.68418 30.948 3.56596 32.0879C2.44774 33.2278 1.56562 34.5761 0.969985 36.0559C0.374351 37.5357 0.0768626 39.118 0.0944899 40.7125C0.112117 42.3069 0.444519 43.8823 1.07272 45.3487C1.70093 46.815 2.61264 48.1436 3.75579 49.2586C4.89893 50.3737 6.25112 51.2532 7.73517 51.8472C9.21922 52.4411 10.8061 52.7377 12.4051 52.7202C15.1347 52.7253 17.7859 51.8101 19.9282 50.1232C22.1988 48.2841 25.026 47.2638 27.9511 47.2279H28.7349C31.7278 47.2661 34.6142 48.3408 36.8998 50.2679C38.7275 51.7586 40.9506 52.6869 43.2982 52.9398C45.6458 53.1926 48.0165 52.7591 50.1213 51.6919C52.2261 50.6248 53.9741 48.9701 55.1522 46.9296C56.3304 44.8892 56.8878 42.551 56.7566 40.2002C56.5719 37.1721 55.2647 34.3206 53.0891 32.2001C50.9134 30.0795 48.0247 28.8414 44.9845 28.7263Z" fill="#9A9A9A"/>
<path d="M16.6998 18.8984C16.3638 18.264 16.075 17.6058 15.8358 16.9292C15.898 19.1186 15.3864 21.2864 14.3516 23.2184C12.9748 25.8791 10.6701 27.9462 7.87148 29.0307C4.99842 30.1023 2.64045 32.2215 1.27415 34.96C-0.139535 37.8186 -0.369226 41.1169 0.634658 44.143C1.63854 47.169 3.79549 49.6801 6.63991 51.1342C9.48434 52.5882 12.7881 52.8687 15.8381 51.9151C18.8882 50.9614 21.4398 48.8501 22.9423 46.0369C24.2177 43.6311 24.6407 40.8663 24.1426 38.1907C23.5717 35.332 23.9848 32.3647 25.3152 29.7692L25.6793 29.0769C26.0173 28.4402 26.4129 27.8356 26.8612 27.2707C25.9752 26.5274 24.9803 25.9235 23.9112 25.48C20.8178 24.1816 18.27 21.8563 16.6998 18.8984Z" fill="#A1A1A1"/>
</g>
<defs>
<clipPath id="clip0_215_7033">
<rect width="57" height="53" fill="white"/>
</clipPath>
</defs>
</svg>
